# xmcd
#
# Track frame offsets:
#	150
#	13570
#	27946
#	43226
#	59661
#	74309
#	85652
#	101034
#	118960
#	134766
#	149536
#	164370
#	180923
#	194877
#	210767
#	223787
#	238521
#	252423
#	265192
#	279426
#	291049
#
# Disc length: 4085 seconds
#
# Revision: 1
# Processed by: cddbd v1.5.2PL0 Copyright (c) Steve Scherf et al.
# Submitted via: dBpowerAMP V4.0
#
DISCID=490ff315
DTITLE=Various Artist - Hott Country Volume 259 Can
DYEAR=2017
DGENRE=Country
TTITLE0=Luke Bryan - Light It Up
TTITLE1=Tim Hicks - Forever Rebels
TTITLE2=Cole Swindell - Stay Downtown
TTITLE3=Billy Currington - Wake Me Up
TTITLE4=James Barker Band - It's Working
TTITLE5=Dylan Scott - Hooked
TTITLE6=River Town Saints - Woke Up Like This
TTITLE7=Rascal Flatts - Back To Us
TTITLE8=Brett Eldredge - The Long Way
TTITLE9=Aaron Pritchett - VW Bus
TTITLE10=Seth Ennis - Look At You
TTITLE11=Bobby Wills - In Comes The Night
TTITLE12=Justin Moore - Kinda Don't Care
TTITLE13=Road Hammers, The - Your Love Is The Drug
TTITLE14=Drew Baldridge - Guns and Roses
TTITLE15=Shawn Austin - Paradise Found
TTITLE16=Shane Owens - 19
TTITLE17=Chase Bryant - Hell If I Know
TTITLE18=Kayla Calabrese - Me Time
TTITLE19=Jason Blaine - Born To Love
TTITLE20=Dani Strong - What You Need
EXTD=
EXTT0=
EXTT1=
EXTT2=
EXTT3=
EXTT4=
EXTT5=
EXTT6=
EXTT7=
EXTT8=
EXTT9=
EXTT10=
EXTT11=
EXTT12=
EXTT13=
EXTT14=
EXTT15=
EXTT16=
EXTT17=
EXTT18=
EXTT19=
EXTT20=
PLAYORDER=
